<svg width="34" height="35" viewBox="0 0 34 35" fill="none" xmlns="http://www.w3.org/2000/svg">
<g clip-path="url(#clip0_4606_1574)">
<path d="M23.7591 10.7119C20.9473 7.90016 16.3885 7.90016 13.5767 10.7119L10.5341 13.7546L9.33408 13.7546C8.84872 13.7546 8.41116 14.047 8.22542 14.4954C8.03969 14.9438 8.14235 15.4599 8.48555 15.8031L18.6679 25.9854C19.0111 26.3286 19.5272 26.4313 19.9756 26.2456C20.424 26.0598 20.7164 25.6223 20.7164 25.1369L20.7164 23.9369L23.7591 20.8943C26.5708 18.0825 26.5708 13.5237 23.7591 10.7119Z" fill="#65656F"/>
<path d="M10.1826 24.2884C8.7767 22.8825 8.77669 20.6031 10.1826 19.1972L15.2738 24.2884C13.8679 25.6943 11.5885 25.6943 10.1826 24.2884Z" fill="#65656F"/>
</g>
<defs>
<clipPath id="clip0_4606_1574">
<rect width="24" height="24" fill="white" transform="translate(16.9707 0.529541) rotate(45)"/>
</clipPath>
</defs>
</svg>