<svg width="16" height="16" viewBox="0 0 16 16" fill="none" xmlns="http://www.w3.org/2000/svg">
<path fill-rule="evenodd" clip-rule="evenodd" d="M2.40039 3.99995C2.40039 3.55812 2.75856 3.19995 3.20039 3.19995H12.8004C13.2422 3.19995 13.6004 3.55812 13.6004 3.99995C13.6004 4.44178 13.2422 4.79995 12.8004 4.79995H3.20039C2.75856 4.79995 2.40039 4.44178 2.40039 3.99995Z" fill="#65656F"/>
<path fill-rule="evenodd" clip-rule="evenodd" d="M2.40039 7.99995C2.40039 7.55812 2.75856 7.19995 3.20039 7.19995H8.00039C8.44222 7.19995 8.80039 7.55812 8.80039 7.99995C8.80039 8.44178 8.44222 8.79995 8.00039 8.79995H3.20039C2.75856 8.79995 2.40039 8.44178 2.40039 7.99995Z" fill="#65656F"/>
<path fill-rule="evenodd" clip-rule="evenodd" d="M2.40039 12C2.40039 11.5581 2.75856 11.2 3.20039 11.2H12.8004C13.2422 11.2 13.6004 11.5581 13.6004 12C13.6004 12.4418 13.2422 12.7999 12.8004 12.7999H3.20039C2.75856 12.7999 2.40039 12.4418 2.40039 12Z" fill="#65656F"/>
</svg>