<svg width="24" height="24" viewBox="0 0 24 24" fill="none" xmlns="http://www.w3.org/2000/svg">
<path d="M4.79961 4.7999C4.79961 3.47442 5.87412 2.3999 7.19961 2.3999H12.7025C13.3391 2.3999 13.9495 2.65276 14.3996 3.10285L18.4967 7.1999C18.9467 7.64999 19.1996 8.26044 19.1996 8.89695V19.1999C19.1996 20.5254 18.1251 21.5999 16.7996 21.5999H14.9663C16.1064 20.3261 16.7996 18.6439 16.7996 16.7999C16.7996 12.8234 13.5761 9.5999 9.5996 9.5999C7.75556 9.5999 6.07342 10.2931 4.79961 11.4332V4.7999Z" fill="#65656F"/>
<path fill-rule="evenodd" clip-rule="evenodd" d="M9.5996 11.9999C6.94864 11.9999 4.79961 14.1489 4.79961 16.7999C4.79961 17.6896 5.04236 18.5235 5.46437 19.2381L3.95108 20.7514C3.48245 21.22 3.48245 21.9798 3.95108 22.4484C4.41971 22.917 5.17951 22.917 5.64814 22.4484L7.16142 20.9351C7.87595 21.3571 8.70994 21.5999 9.5996 21.5999C12.2506 21.5999 14.3996 19.4509 14.3996 16.7999C14.3996 14.1489 12.2506 11.9999 9.5996 11.9999ZM7.19961 16.7999C7.19961 15.4744 8.27412 14.3999 9.5996 14.3999C10.9251 14.3999 11.9996 15.4744 11.9996 16.7999C11.9996 18.1254 10.9251 19.1999 9.5996 19.1999C8.93653 19.1999 8.33818 18.9326 7.90255 18.4969C7.46692 18.0613 7.19961 17.463 7.19961 16.7999Z" fill="#65656F"/>
</svg>