<svg width="24" height="25" viewBox="0 0 24 25" fill="none" xmlns="http://www.w3.org/2000/svg">
<path d="M3.60039 4.1001C2.93765 4.1001 2.40039 4.63736 2.40039 5.3001V19.7001C2.40039 20.3628 2.93765 20.9001 3.60039 20.9001C4.26313 20.9001 4.80039 20.3628 4.80039 19.7001V5.3001C4.80039 4.63736 4.26313 4.1001 3.60039 4.1001Z" fill="#65656F"/>
<path d="M15.9519 15.2516C15.4832 15.7202 15.4832 16.48 15.9519 16.9486C16.4205 17.4172 17.1803 17.4172 17.6489 16.9486L21.2489 13.3486C21.474 13.1236 21.6004 12.8184 21.6004 12.5001C21.6004 12.1818 21.474 11.8766 21.2489 11.6516L17.6489 8.05157C17.1803 7.58294 16.4205 7.58294 15.9519 8.05157C15.4832 8.52019 15.4832 9.27999 15.9519 9.74862L17.5033 11.3001L8.40039 11.3001C7.73765 11.3001 7.20039 11.8374 7.20039 12.5001C7.20039 13.1628 7.73765 13.7001 8.40039 13.7001H17.5033L15.9519 15.2516Z" fill="#65656F"/>
</svg>