<svg width="48" height="48" viewBox="0 0 48 48" fill="none" xmlns="http://www.w3.org/2000/svg">
<rect width="48" height="48" rx="16" fill="#005EB8"/>
<path fill-rule="evenodd" clip-rule="evenodd" d="M16.7996 16.7999C16.7996 15.4744 17.8741 14.3999 19.1996 14.3999H28.7996C30.1251 14.3999 31.1996 15.4744 31.1996 16.7999V31.1999C31.8624 31.1999 32.3996 31.7372 32.3996 32.3999C32.3996 33.0626 31.8624 33.5999 31.1996 33.5999H27.5996C26.9369 33.5999 26.3996 33.0626 26.3996 32.3999V29.9999C26.3996 29.3372 25.8624 28.7999 25.1996 28.7999H22.7996C22.1369 28.7999 21.5996 29.3372 21.5996 29.9999V32.3999C21.5996 33.0626 21.0624 33.5999 20.3996 33.5999H16.7996C16.1369 33.5999 15.5996 33.0626 15.5996 32.3999C15.5996 31.7372 16.1369 31.1999 16.7996 31.1999V16.7999ZM20.3996 17.9999H22.7996V20.3999H20.3996V17.9999ZM22.7996 22.7999H20.3996V25.1999H22.7996V22.7999ZM25.1996 17.9999H27.5996V20.3999H25.1996V17.9999ZM27.5996 22.7999H25.1996V25.1999H27.5996V22.7999Z" fill="white"/>
</svg>
