<svg width="24" height="24" viewBox="0 0 24 24" fill="none" xmlns="http://www.w3.org/2000/svg">
<path d="M2.40399 7.06085L12.0004 11.8584L21.5968 7.06085C21.5613 6.44938 21.2933 5.87463 20.8478 5.45432C20.4023 5.03401 19.8129 4.79994 19.2004 4.80005H4.80039C4.18789 4.79994 3.59853 5.03401 3.153 5.45432C2.70748 5.87463 2.43952 6.44938 2.40399 7.06085Z" fill="#65656F"/>
<path d="M21.6004 9.74165L12.0004 14.5416L2.40039 9.74165V16.8001C2.40039 17.4366 2.65325 18.047 3.10333 18.4971C3.55342 18.9472 4.16387 19.2001 4.80039 19.2001H19.2004C19.8369 19.2001 20.4474 18.9472 20.8974 18.4971C21.3475 18.047 21.6004 17.4366 21.6004 16.8001V9.74165Z" fill="#65656F"/>
</svg>