<svg width="24" height="24" viewBox="0 0 24 24" fill="none" xmlns="http://www.w3.org/2000/svg">
<path fill-rule="evenodd" clip-rule="evenodd" d="M9.60037 4.7999C6.94941 4.7999 4.80038 6.94892 4.80038 9.59988C4.80038 12.2508 6.94941 14.3999 9.60037 14.3999C12.2513 14.3999 14.4004 12.2508 14.4004 9.59988C14.4004 6.94892 12.2513 4.7999 9.60037 4.7999ZM2.40039 9.59988C2.40039 5.62344 5.62393 2.3999 9.60037 2.3999C13.5768 2.3999 16.8003 5.62344 16.8003 9.59988C16.8003 11.1549 16.3074 12.5947 15.4692 13.7717L21.2489 19.5513C21.7175 20.0199 21.7175 20.7797 21.2489 21.2484C20.7802 21.717 20.0204 21.717 19.5518 21.2484L13.7722 15.4688C12.5952 16.3069 11.1554 16.7999 9.60037 16.7999C5.62393 16.7999 2.40039 13.5763 2.40039 9.59988Z" fill="#65656F"/>
</svg>