<svg width="24" height="25" viewBox="0 0 24 25" fill="none" xmlns="http://www.w3.org/2000/svg">
<path fill-rule="evenodd" clip-rule="evenodd" d="M13.7875 4.30503C13.3326 2.43153 10.6682 2.43153 10.2133 4.30503C9.91951 5.51529 8.53293 6.08964 7.46939 5.44161C5.82301 4.43845 3.93894 6.32252 4.9421 7.9689C5.59012 9.03244 5.01578 10.419 3.80552 10.7128C1.93201 11.1677 1.93201 13.8321 3.80552 14.287C5.01578 14.5808 5.59012 15.9674 4.9421 17.0309C3.93894 18.6773 5.82301 20.5614 7.46939 19.5582C8.53293 18.9102 9.91951 19.4845 10.2133 20.6948C10.6682 22.5683 13.3326 22.5683 13.7875 20.6948C14.0813 19.4845 15.4679 18.9102 16.5314 19.5582C18.1778 20.5614 20.0618 18.6773 19.0587 17.0309C18.4107 15.9674 18.985 14.5808 20.1953 14.287C22.0688 13.8321 22.0688 11.1677 20.1953 10.7128C18.985 10.419 18.4107 9.03244 19.0587 7.9689C20.0618 6.32252 18.1778 4.43845 16.5314 5.44161C15.4679 6.08964 14.0813 5.51529 13.7875 4.30503ZM12.0005 16.1C13.9887 16.1 15.6005 14.4882 15.6005 12.5C15.6005 10.5118 13.9887 8.9 12.0005 8.9C10.0123 8.9 8.40049 10.5118 8.40049 12.5C8.40049 14.4882 10.0123 16.1 12.0005 16.1Z" fill="#65656F"/>
</svg>