<svg width="24" height="24" viewBox="0 0 24 24" fill="none" xmlns="http://www.w3.org/2000/svg">
<g clip-path="url(#clip0_4606_1262)">
<path d="M10.8587 3.51246C11.2179 2.40688 12.782 2.40689 13.1413 3.51246L14.4247 7.46261C14.5854 7.95704 15.0461 8.29179 15.566 8.29179L19.7194 8.29179C20.8819 8.29179 21.3652 9.77933 20.4248 10.4626L17.0646 12.9039C16.644 13.2095 16.468 13.7511 16.6287 14.2456L17.9121 18.1957C18.2714 19.3013 17.006 20.2206 16.0655 19.5374L12.7053 17.096C12.2847 16.7905 11.7152 16.7905 11.2946 17.096L7.93445 19.5374C6.99399 20.2206 5.72862 19.3013 6.08784 18.1957L7.37132 14.2456C7.53197 13.7511 7.35598 13.2095 6.9354 12.9039L3.5752 10.4626C2.63474 9.77933 3.11807 8.29179 4.28054 8.29179L8.43398 8.29179C8.95385 8.29179 9.41459 7.95704 9.57524 7.46261L10.8587 3.51246Z" fill="#65656F"/>
</g>
<defs>
<clipPath id="clip0_4606_1262">
<rect width="24" height="24" fill="white"/>
</clipPath>
</defs>
</svg>